<?xml version="1.0" standalone="no"?><!DOCTYPE svg PUBLIC "-//W3C//DTD SVG 1.1//EN" "http://www.w3.org/Graphics/SVG/1.1/DTD/svg11.dtd"><svg t="1589822159787" class="icon" viewBox="0 0 1496 1024" version="1.1" xmlns="http://www.w3.org/2000/svg" p-id="6179" xmlns:xlink="http://www.w3.org/1999/xlink" width="292.1875" height="200"><defs><style type="text/css"></style></defs><path d="M43.313076 587.707867a118.551546 118.551546 0 0 1 0-151.335577C158.257577 297.460978 430.46924 16.031311 747.969358 16.031311s589.631624 281.429667 704.656281 420.340979a118.711859 118.711859 0 0 1 0 151.335577c-115.024658 138.831155-387.156164 420.340978-704.656281 420.340978S158.257577 726.539022 43.313076 587.707867z" fill="#FFF100" p-id="6180"></path><path d="M609.21836 41.20047C352.717381 104.684462 140.783448 325.836399 42.99245 443.987162A117.669824 117.669824 0 0 0 16.059847 512.040078z" fill="#FFFFFF" p-id="6181"></path><path d="M1479.878868 542.579726c-132.258317 228.686654-403.508102 370.483601-544.182857 431.643053a118.150763 118.150763 0 0 1-72.862309 6.893464z" fill="#F8B62D" p-id="6182"></path><path d="M747.969358 1024c-141.636634 0-288.563601-54.185832-437.654795-161.034521-122.238748-88.172211-219.388493-192.375734-279.345597-265.077729a134.582857 134.582857 0 0 1 0-171.7755C137.01609 298.022074 419.247322 0 747.969358 0c142.4382 0 290.567515 54.827084 440.299961 163.038434a16.031311 16.031311 0 0 1-18.756635 25.970725C1025.311041 84.885793 883.514093 32.062622 747.969358 32.062622 432.873937 32.062622 158.818673 321.988885 55.657185 446.552172a102.680548 102.680548 0 0 0 0 130.57503C158.818673 702.091272 432.873937 991.937378 747.969358 991.937378s589.150685-289.846106 692.312172-414.810176a102.840861 102.840861 0 0 0 0-130.895656c-17.554286-21.241487-36.07045-42.402818-54.907241-62.922896a16.031311 16.031311 0 1 1 23.646184-21.64227c19.157417 20.920861 37.994207 42.482975 56.109589 64.125244a134.823327 134.823327 0 0 1 0 171.775499c-106.207436 128.490959-388.438669 426.432877-717.160704 426.432877z" fill="#231815" p-id="6183"></path><path d="M1331.108301 320.626223a16.031311 16.031311 0 0 1-11.141761-4.488767c-22.684305-22.043053-45.929706-43.204384-69.014795-62.922896a16.031311 16.031311 0 1 1 20.840705-24.046967c24.046967 20.199452 47.372524 41.841722 70.457612 64.125245a16.031311 16.031311 0 0 1-11.141761 27.333385z" fill="#231815" p-id="6184"></path><path d="M904.835737 809.581213a339.062231 339.062231 0 1 1 95.225989-73.904344" fill="#FFFFFF" p-id="6185"></path><path d="M747.969358 864.007515a355.013386 355.013386 0 1 1 263.955538-117.589668 16.031311 16.031311 0 1 1-24.046967-21.481957A322.149198 322.149198 0 1 0 897.78196 795.393503a16.031311 16.031311 0 0 1 14.828963 28.455577 355.734795 355.734795 0 0 1-164.641565 40.158435z" fill="#231815" p-id="6186"></path><path d="M749.572489 496.970646m-185.48227 0a185.48227 185.48227 0 1 0 370.96454 0 185.48227 185.48227 0 1 0-370.96454 0Z" fill="#00A0E9" p-id="6187"></path><path d="M806.643956 314.213699a185.2418 185.2418 0 0 1-144.2818 336.096438 185.402114 185.402114 0 1 0 144.2818-336.096438z" fill="#036EB8" p-id="6188"></path><path d="M689.374915 670.188963a185.2418 185.2418 0 0 1 144.281801-336.096439 185.402114 185.402114 0 1 0-144.281801 336.096439z" fill="#FFFFFF" p-id="6189"></path><path d="M749.572489 698.484227A201.593738 201.593738 0 1 1 951.166227 496.970646a201.754051 201.754051 0 0 1-201.593738 201.513581z m0-371.044697A169.531115 169.531115 0 1 0 919.103604 496.970646a169.691429 169.691429 0 0 0-169.531115-169.531116z" fill="#231815" p-id="6190"></path></svg>